<svg width="256" height="256" viewBox="0 0 256 256" fill="none" xmlns="http://www.w3.org/2000/svg">
<path d="M60.5531 227.347L87.5949 243.081C87.63 243.103 87.6545 243.138 87.6899 243.158C89.9469 244.454 92.6606 243.984 94.9446 242.667L191.06 187.174C195.563 184.575 199.077 178.486 199.063 173.306L198.671 35.0942C198.662 32.146 197.492 29.7876 195.461 28.6201C189.394 25.1369 175.965 17.2791 168.369 12.8607C167.166 12.1673 164.621 11.3111 161.077 13.3442L149.338 20.1248C148.183 20.7923 147.787 22.2687 148.454 23.4243C149.119 24.58 150.596 24.9715 151.754 24.3088L163.487 17.5305C164.541 16.9267 165.438 16.7475 165.945 17.0399L187.431 29.5623L92.0932 84.6036C87.5495 87.2289 84.0837 93.1767 84.0837 98.4739L84.4682 235.674L62.8479 223.099C62.5884 222.969 62.2017 222.28 62.2017 220.905L61.77 83.2003C62.4643 79.729 62.9429 75.7851 67.1474 73.1602C67.6344 72.9479 66.2353 73.7 132.893 35.205C134.048 34.5376 134.445 33.0611 133.777 31.9055C133.107 30.7451 131.624 30.3536 130.478 31.021C113.689 40.712 72.6298 64.457 64.9564 68.8418C60.4042 71.468 56.9375 77.6104 56.9375 82.7286L57.3715 220.913C57.3715 223.995 58.579 226.365 60.5531 227.347ZM188.645 182.99L92.5295 238.483C90.589 239.606 89.3226 239.371 89.3125 236.67L88.921 98.4574C88.9111 94.8552 91.7324 90.488 94.3924 88.8822C242.673 3.28346 169.611 45.4603 190.657 33.3111C192.689 32.1224 193.83 32.6648 193.841 35.1083L194.232 173.321C194.242 176.809 191.683 181.238 188.645 182.99Z" fill="#73D5A2"/>
<path d="M139.928 31.139L145.768 27.7663C146.923 27.0989 147.32 25.6225 146.652 24.4668C145.982 23.3088 144.499 22.9102 143.353 23.5824L137.513 26.955C136.357 27.6225 135.961 29.0989 136.629 30.2545C137.298 31.4133 138.779 31.8029 139.928 31.139ZM183.011 46.0564L97.9941 95.1649C97.2158 95.8111 96.4752 97.1272 96.296 97.6484C96.2087 97.9031 96.1663 98.1673 96.1663 98.4361L96.52 223.639C96.5224 224.5 96.9847 225.295 97.7299 225.726C98.4645 226.149 99.3868 226.159 100.143 225.724L185.169 176.606C185.959 175.946 186.695 174.627 186.867 174.104C186.947 173.858 186.987 173.601 186.987 173.342L186.633 48.1413C186.628 46.3064 184.638 45.1215 183.011 46.0564ZM182.074 172.856L101.338 219.457L100.999 99.0423C101.025 98.9998 101.053 98.9597 101.079 98.922L181.815 52.3229L182.154 172.738C182.129 172.78 182.1 172.821 182.074 172.856Z" fill="#73D5A2"/>
<path d="M165.151 74.3268L134.946 91.7608C133.79 92.4282 133.394 93.9047 134.061 95.0603C134.735 96.2237 136.216 96.6059 137.361 95.9447L167.566 78.5108C168.722 77.8433 169.118 76.3669 168.45 75.2113C167.781 74.0532 166.297 73.6547 165.151 74.3268ZM137.509 113.28L167.474 95.433C168.62 94.749 168.995 93.2679 168.314 92.1216C167.632 90.9731 166.146 90.5957 165.002 91.282L135.038 109.129C133.892 109.813 133.517 111.294 134.198 112.44C134.89 113.601 136.383 113.953 137.509 113.28ZM165.151 111.353L134.946 128.784C133.79 129.452 133.394 130.928 134.061 132.084C134.735 133.247 136.216 133.629 137.361 132.968L167.566 115.537C168.722 114.869 169.118 113.393 168.45 112.237C167.781 111.082 166.297 110.683 165.151 111.353ZM137.509 150.303L167.474 132.459C168.62 131.775 168.995 130.294 168.314 129.148C167.632 128.001 166.146 127.626 165.002 128.308L135.038 146.152C133.892 146.836 133.517 148.317 134.198 149.464C134.89 150.625 136.383 150.976 137.509 150.303ZM165.151 148.376L134.946 165.81C133.79 166.478 133.394 167.954 134.061 169.11C134.735 170.273 136.216 170.655 137.361 169.994L167.566 152.56C168.722 151.893 169.118 150.416 168.45 149.261C167.781 148.105 166.297 147.707 165.151 148.376ZM165.002 165.334L135.038 183.178C133.892 183.862 133.517 185.343 134.198 186.49C134.89 187.65 136.383 188.002 137.509 187.329L167.474 169.485C168.62 168.801 168.995 167.32 168.314 166.174C167.632 165.03 166.146 164.648 165.002 165.334Z" fill="#73D5A2"/>
<path fill-rule="evenodd" clip-rule="evenodd" d="M119.652 196.09C123.879 193.65 127.305 187.716 127.305 182.836C127.305 177.956 123.879 175.978 119.652 178.418C115.426 180.858 112 186.792 112 191.672C112 196.552 115.426 198.53 119.652 196.09ZM119.385 192.572C121.731 191.322 123.706 188.07 123.797 185.309C123.887 182.548 122.058 181.322 119.712 182.573C117.366 183.823 115.391 187.075 115.3 189.836C115.21 192.597 117.039 193.823 119.385 192.572Z" fill="#73D5A2"/>
<path fill-rule="evenodd" clip-rule="evenodd" d="M119.652 158.09C123.879 155.65 127.305 149.716 127.305 144.836C127.305 139.956 123.879 137.978 119.652 140.418C115.426 142.858 112 148.792 112 153.672C112 158.552 115.426 160.53 119.652 158.09ZM119.385 154.572C121.731 153.322 123.706 150.07 123.797 147.309C123.887 144.548 122.058 143.322 119.712 144.573C117.366 145.823 115.391 149.075 115.3 151.836C115.21 154.597 117.039 155.823 119.385 154.572Z" fill="#73D5A2"/>
<path fill-rule="evenodd" clip-rule="evenodd" d="M119.652 119.717C123.879 117.277 127.305 111.343 127.305 106.463C127.305 101.583 123.879 99.6051 119.652 102.045C115.426 104.485 112 110.419 112 115.299C112 120.179 115.426 122.158 119.652 119.717ZM119.385 116.199C121.731 114.949 123.706 111.697 123.797 108.936C123.887 106.175 122.058 104.95 119.712 106.2C117.366 107.45 115.391 110.702 115.3 113.463C115.21 116.224 117.039 117.45 119.385 116.199Z" fill="#73D5A2"/>
<circle cx="2.5" cy="2.5" r="2.5" transform="matrix(0.859406 -0.511293 -0.181034 0.983477 117.905 110.034)" fill="#73D5A2"/>
</svg>
